<svg width="29" height="24" viewBox="0 0 29 24" fill="none" xmlns="http://www.w3.org/2000/svg">
<path d="M18.4674 0.705212C19.22 0.991862 19.608 1.86268 19.3341 2.65025L12.391 22.6144C12.1172 23.4019 11.2851 23.808 10.5326 23.5213C9.78005 23.2347 9.39205 22.3639 9.66594 21.5763L16.609 1.6122C16.8828 0.824633 17.7149 0.418563 18.4674 0.705212ZM3.50061 12.4815L8.62713 17.8468C9.19339 18.4394 9.19339 19.4002 8.62713 19.9929C8.06087 20.5855 7.14278 20.5855 6.57652 19.9929L0.424695 13.5545C-0.141565 12.9619 -0.141565 12.0011 0.424695 11.4084L6.57652 4.97012C7.14278 4.37749 8.06087 4.37749 8.62713 4.97012C9.19339 5.56275 9.19339 6.5236 8.62713 7.11623L3.50061 12.4815ZM25.4994 12.4815L20.3729 7.11623C19.8066 6.5236 19.8066 5.56275 20.3729 4.97012C20.9391 4.37749 21.8572 4.37749 22.4235 4.97012L28.5753 11.4084C29.1416 12.0011 29.1416 12.9619 28.5753 13.5545L22.4235 19.9929C21.8572 20.5855 20.9391 20.5855 20.3729 19.9929C19.8066 19.4002 19.8066 18.4394 20.3729 17.8468L25.4994 12.4815Z" fill="#BF00FF"/>
</svg>
