<svg width="24" height="24" viewBox="0 0 24 24" fill="none" xmlns="http://www.w3.org/2000/svg">
<path fill-rule="evenodd" clip-rule="evenodd" d="M5.12695 9.873V10.045C5.12695 13.506 9.50895 18.716 11.275 20.676C11.664 21.108 12.336 21.108 12.725 20.676C14.491 18.716 18.873 13.506 18.873 10.045V9.873C18.873 6.077 15.796 3 12 3C8.20395 3 5.12695 6.077 5.12695 9.873ZM12 11.955C10.895 11.955 10 11.06 10 9.95497V9.91797C10 8.81297 10.895 7.91797 12 7.91797C13.105 7.91797 14 8.81297 14 9.91797V9.95497C14 11.06 13.105 11.955 12 11.955Z" fill="#8D99A0"/>
</svg>
