<svg width="125" height="19" viewBox="0 0 125 19" fill="none" xmlns="http://www.w3.org/2000/svg">
<path d="M11.4922 15.2578V18H2.90234V15.2578H11.4922ZM4.03906 0.9375V18H0.523438V0.9375H4.03906ZM22.5312 0.9375H26.0352V12.2109C26.0352 13.5234 25.7539 14.6289 25.1914 15.5273C24.6367 16.4258 23.8672 17.1016 22.8828 17.5547C21.9062 18.0078 20.7812 18.2344 19.5078 18.2344C18.2344 18.2344 17.1016 18.0078 16.1094 17.5547C15.125 17.1016 14.3516 16.4258 13.7891 15.5273C13.2344 14.6289 12.957 13.5234 12.957 12.2109V0.9375H16.4727V12.2109C16.4727 12.9766 16.5938 13.6016 16.8359 14.0859C17.0781 14.5703 17.4258 14.9258 17.8789 15.1523C18.3398 15.3789 18.8828 15.4922 19.5078 15.4922C20.1484 15.4922 20.6914 15.3789 21.1367 15.1523C21.5898 14.9258 21.9336 14.5703 22.168 14.0859C22.4102 13.6016 22.5312 12.9766 22.5312 12.2109V0.9375ZM30.5352 0.9375H33.5117L37.8945 13.4648L42.2773 0.9375H45.2539L39.0898 18H36.6992L30.5352 0.9375ZM28.9297 0.9375H31.8945L32.4336 13.1484V18H28.9297V0.9375ZM43.8945 0.9375H46.8711V18H43.3555V13.1484L43.8945 0.9375ZM53.6914 0.9375V18H50.1875V0.9375H53.6914ZM70.8711 0.9375V18H67.3555L60.5 6.5625V18H56.9844V0.9375H60.5L67.3672 12.3867V0.9375H70.8711ZM81.0781 3.85547L76.4375 18H72.6992L79.0391 0.9375H81.418L81.0781 3.85547ZM84.9336 18L80.2812 3.85547L79.9062 0.9375H82.3086L88.6836 18H84.9336ZM84.7227 11.6484V14.4023H75.7109V11.6484H84.7227ZM94.0039 0.9375V18H90.5V0.9375H94.0039ZM97.2969 0.9375H103.66C104.965 0.9375 106.086 1.13281 107.023 1.52344C107.969 1.91406 108.695 2.49219 109.203 3.25781C109.711 4.02344 109.965 4.96484 109.965 6.08203C109.965 6.99609 109.809 7.78125 109.496 8.4375C109.191 9.08594 108.758 9.62891 108.195 10.0664C107.641 10.4961 106.988 10.8398 106.238 11.0977L105.125 11.6836H99.5938L99.5703 8.94141H103.684C104.301 8.94141 104.812 8.83203 105.219 8.61328C105.625 8.39453 105.93 8.08984 106.133 7.69922C106.344 7.30859 106.449 6.85547 106.449 6.33984C106.449 5.79297 106.348 5.32031 106.145 4.92188C105.941 4.52344 105.633 4.21875 105.219 4.00781C104.805 3.79688 104.285 3.69141 103.66 3.69141H100.812V18H97.2969V0.9375ZM106.836 18L102.945 10.3945L106.66 10.3711L110.598 17.8359V18H106.836ZM124.121 15.2578V18H115.039V15.2578H124.121ZM116.188 0.9375V18H112.672V0.9375H116.188ZM122.938 7.88672V10.5586H115.039V7.88672H122.938ZM124.109 0.9375V3.69141H115.039V0.9375H124.109Z" fill="white"/>
</svg>
